<svg width="41" height="41" viewBox="0 0 41 41" fill="none" xmlns="http://www.w3.org/2000/svg">
<g id="Frame 139">
<g id="Group 10" filter="url(#filter0_d_237_2248)">
<path id="Vector" d="M6 20.4C6 13.6118 6 10.2178 8.10816 8.10816C10.2192 6 13.6118 6 20.4 6C27.1882 6 30.5822 6 32.6904 8.10816C34.8 10.2192 34.8 13.6118 34.8 20.4C34.8 27.1882 34.8 30.5822 32.6904 32.6904C30.5837 34.8 27.1882 34.8 20.4 34.8C13.6118 34.8 10.2178 34.8 8.10816 32.6904C6 30.5837 6 27.1882 6 20.4Z" fill="white"/>
</g>
<path id="Vector_2" d="M20.4021 13.2C19.153 13.1995 17.9252 13.5241 16.8395 14.1418C15.7537 14.7594 14.8474 15.649 14.2094 16.7229C13.5715 17.7969 13.224 19.0183 13.2009 20.2673C13.1779 21.5162 13.4802 22.7496 14.0781 23.8464L13.2261 26.8344C13.1962 26.9393 13.1954 27.0504 13.2238 27.1557C13.2523 27.2611 13.3089 27.3566 13.3877 27.4322C13.4664 27.5077 13.5643 27.5604 13.6707 27.5844C13.7772 27.6085 13.8881 27.6031 13.9917 27.5688L16.7973 26.634C17.7536 27.1865 18.8241 27.5117 19.9261 27.5844C21.0281 27.657 22.1321 27.4752 23.1526 27.0529C24.1731 26.6306 25.0827 25.9793 25.8112 25.1492C26.5397 24.3191 27.0675 23.3326 27.3537 22.2659C27.6399 21.1993 27.6769 20.0811 27.4619 18.9978C27.2468 17.9145 26.7854 16.8953 26.1134 16.0188C25.4414 15.1424 24.5767 14.4324 23.5864 13.9436C22.596 13.4547 21.5065 13.2003 20.4021 13.2ZM18.0021 19.2C18.0021 19.0408 18.0653 18.8882 18.1779 18.7757C18.2904 18.6632 18.443 18.6 18.6021 18.6H22.2021C22.3612 18.6 22.5139 18.6632 22.6264 18.7757C22.7389 18.8882 22.8021 19.0408 22.8021 19.2C22.8021 19.3591 22.7389 19.5117 22.6264 19.6242C22.5139 19.7367 22.3612 19.8 22.2021 19.8H18.6021C18.443 19.8 18.2904 19.7367 18.1779 19.6242C18.0653 19.5117 18.0021 19.3591 18.0021 19.2ZM18.6021 21H21.0021C21.1613 21 21.3139 21.0632 21.4264 21.1757C21.5389 21.2882 21.6021 21.4408 21.6021 21.6C21.6021 21.7591 21.5389 21.9117 21.4264 22.0242C21.3139 22.1367 21.1613 22.2 21.0021 22.2H18.6021C18.443 22.2 18.2904 22.1367 18.1779 22.0242C18.0653 21.9117 18.0021 21.7591 18.0021 21.6C18.0021 21.4408 18.0653 21.2882 18.1779 21.1757C18.2904 21.0632 18.443 21 18.6021 21Z" fill="#26A5D0"/>
</g>
<defs>
<filter id="filter0_d_237_2248" x="0.24" y="0.24" width="40.3198" height="40.32" filterUnits="userSpaceOnUse" color-interpolation-filters="sRGB">
<feFlood flood-opacity="0" result="BackgroundImageFix"/>
<feColorMatrix in="SourceAlpha" type="matrix" values="0 0 0 0 0 0 0 0 0 0 0 0 0 0 0 0 0 0 127 0" result="hardAlpha"/>
<feOffset/>
<feGaussianBlur stdDeviation="2.88"/>
<feComposite in2="hardAlpha" operator="out"/>
<feColorMatrix type="matrix" values="0 0 0 0 0 0 0 0 0 0 0 0 0 0 0 0 0 0 0.25 0"/>
<feBlend mode="normal" in2="BackgroundImageFix" result="effect1_dropShadow_237_2248"/>
<feBlend mode="normal" in="SourceGraphic" in2="effect1_dropShadow_237_2248" result="shape"/>
</filter>
</defs>
</svg>
